<svg width="25" height="25" viewBox="0 0 25 25" fill="none" xmlns="http://www.w3.org/2000/svg">
<g id="discord-icon-svgrepo-com 1">
<g id="Group">
<path id="Vector" d="M20.2949 4.96065C18.9077 4.31166 17.4246 3.83999 15.874 3.57143C15.6835 3.91572 15.4611 4.37881 15.3077 4.74719C13.6593 4.4993 12.0262 4.4993 10.4081 4.74719C10.2548 4.37881 10.0272 3.91572 9.83511 3.57143C8.28283 3.83999 6.79796 4.31339 5.41085 4.96409C2.61304 9.19195 1.8546 13.3148 2.23382 17.3791C4.08948 18.7649 5.88783 19.6067 7.65584 20.1575C8.09237 19.5567 8.48169 18.9181 8.81709 18.245C8.17832 18.0023 7.56651 17.7028 6.98842 17.355C7.14179 17.2414 7.2918 17.1226 7.43673 17.0004C10.9626 18.6495 14.7936 18.6495 18.2774 17.0004C18.424 17.1226 18.574 17.2414 18.7257 17.355C18.1459 17.7045 17.5324 18.004 16.8937 18.2467C17.2291 18.9181 17.6167 19.5585 18.0549 20.1592C19.8246 19.6084 21.6247 18.7666 23.4803 17.3791C23.9253 12.6675 22.7202 8.58255 20.2949 4.96065ZM9.29744 14.8796C8.239 14.8796 7.37099 13.8915 7.37099 12.6882C7.37099 11.4849 8.22047 10.4951 9.29744 10.4951C10.3744 10.4951 11.2424 11.4832 11.2239 12.6882C11.2256 13.8915 10.3744 14.8796 9.29744 14.8796ZM16.4167 14.8796C15.3583 14.8796 14.4902 13.8915 14.4902 12.6882C14.4902 11.4849 15.3397 10.4951 16.4167 10.4951C17.4937 10.4951 18.3617 11.4832 18.3431 12.6882C18.3431 13.8915 17.4937 14.8796 16.4167 14.8796Z" fill="white"/>
</g>
</g>
</svg>
