<svg width="19" height="18" viewBox="0 0 19 18" fill="none" xmlns="http://www.w3.org/2000/svg">
<g id="iconmonstr-telegram-1 1" clip-path="url(#clip0_1_802)">
<path id="telegram-1" fill-rule="evenodd" clip-rule="evenodd" d="M14.2499 16.5655C14.4895 16.7267 14.7983 16.767 15.0736 16.668C15.3489 16.5683 15.5513 16.345 15.6123 16.0743C16.2588 13.1875 17.8273 5.88084 18.4158 3.25491C18.4605 3.05699 18.3861 2.8513 18.2224 2.71912C18.0587 2.58694 17.8318 2.54877 17.6294 2.62016C14.5096 3.71719 4.9017 7.14185 0.974615 8.52232C0.725359 8.60997 0.563156 8.83757 0.571341 9.08709C0.58027 9.33731 0.757353 9.55432 1.01256 9.62712C2.77372 10.1276 5.08548 10.8238 5.08548 10.8238C5.08548 10.8238 6.16583 13.9233 6.72908 15.4996C6.79976 15.6975 6.96271 15.853 7.17774 15.9067C7.39203 15.9597 7.62119 15.9039 7.78116 15.7604C8.68592 14.949 10.0847 13.6943 10.0847 13.6943C10.0847 13.6943 12.7425 15.5455 14.2499 16.5655ZM6.05795 10.4322L7.3072 14.3467L7.58473 11.8678C7.58473 11.8678 12.4114 7.73207 15.1629 5.37474C15.2432 5.30547 15.2544 5.18955 15.1874 5.10826C15.1212 5.02697 14.9992 5.00789 14.9077 5.06302C11.7187 6.99766 6.05795 10.4322 6.05795 10.4322Z" fill="white"/>
</g>
<defs>
<clipPath id="clip0_1_802">
<rect width="17.8571" height="16.9643" fill="white" transform="translate(0.571411 0.464287)"/>
</clipPath>
</defs>
</svg>
