<svg width="25" height="25" viewBox="0 0 25 25" fill="none" xmlns="http://www.w3.org/2000/svg">
<g id="Twitter_2012_logo 1">
<path id="bird" d="M20.8333 7.33117C20.2201 7.60317 19.561 7.78692 18.8695 7.86958C19.5754 7.44642 20.1176 6.77633 20.3729 5.97783C19.7121 6.36975 18.9804 6.65425 18.2015 6.80758C17.5778 6.143 16.6891 5.72783 15.7056 5.72783C13.8173 5.72783 12.2862 7.25875 12.2862 9.14708C12.2862 9.41508 12.3165 9.67608 12.3747 9.92633C9.53288 9.78375 7.01338 8.42242 5.32688 6.35367C5.03254 6.85867 4.86388 7.446 4.86388 8.07267C4.86388 9.259 5.46754 10.3056 6.38504 10.9187C5.82454 10.901 5.29729 10.7472 4.83629 10.4911C4.83596 10.5053 4.83596 10.5197 4.83596 10.5341C4.83596 12.1907 6.01463 13.5727 7.57888 13.8869C7.29196 13.9651 6.98988 14.0068 6.67804 14.0068C6.45771 14.0068 6.24354 13.9853 6.03471 13.9455C6.46988 15.3039 7.73263 16.2926 9.22896 16.3201C8.05871 17.2372 6.58438 17.7838 4.98229 17.7838C4.70629 17.7838 4.43413 17.7677 4.16663 17.736C5.67988 18.7062 7.47721 19.2724 9.40821 19.2724C15.6976 19.2724 19.137 14.0621 19.137 9.5435C19.137 9.39525 19.1337 9.24783 19.1271 9.10108C19.7952 8.61908 20.3749 8.01683 20.8333 7.33117Z" fill="white"/>
</g>
</svg>
